<?xml version="1.0" encoding="utf-8"?>
<svg xmlns="http://www.w3.org/2000/svg" style="margin: auto; background: none; display: block; shape-rendering: auto; animation-play-state: running; animation-delay: 0s;" width="239" height="71" preserveAspectRatio="xMidYMid">
<style type="text/css" style="animation-play-state: running; animation-delay: 0s;">
  text {
    text-anchor: middle; font-size: 30px; opacity: 0;
  }
</style>
<g style="transform-origin: 119.5px 35.5px; transform: scale(1); animation-play-state: running; animation-delay: 0s;">
<g transform="translate(119.5,35.5)" style="animation-play-state: running; animation-delay: 0s;">
  <g transform="translate(0,0)" style="animation-play-state: running; animation-delay: 0s;"><g class="path" style="opacity: 1; transform-origin: -79.14px -2.02157px; animation: 1.19048s linear -0.729592s infinite normal forwards running fade-f5abeaee-789f-4b2b-9e81-81d45638947c;"><path d="M2.40-20.10L6.66-20.85L6.24-7.80L6.60 0L2.40 0L2.76-7.29L2.40-20.10" fill="#0b76b3" stroke="none" stroke-width="none" transform="translate(-83.66998291015625,8.403427080426894)" style="fill: rgb(11, 118, 179); animation-play-state: running; animation-delay: 0s;"></path></g><g class="path" style="opacity: 1; transform-origin: -66.84px 0.843427px; animation: 1.19048s linear -0.673469s infinite normal forwards running fade-f5abeaee-789f-4b2b-9e81-81d45638947c;"><path d="M19.50-7.59L19.50-7.59Q19.50-9.66 19.14-10.35L19.14-10.35L19.14-10.35Q18.78-11.04 17.46-11.04L17.46-11.04L17.46-11.04Q16.14-11.04 14.46-9.99L14.46-9.99L14.46-7.80L14.79-0.75L10.77 0L11.13-7.29L11.13-7.29Q11.01-11.31 10.47-14.49L10.47-14.49L14.10-15.27L14.10-15.27Q14.31-13.53 14.40-11.88L14.40-11.88L14.40-11.88Q14.85-12.48 15.42-13.06L15.42-13.06L15.42-13.06Q15.99-13.65 17.22-14.38L17.22-14.38L17.22-14.38Q18.45-15.12 19.81-15.12L19.81-15.12L19.81-15.12Q21.18-15.12 22.11-14.05L22.11-14.05L22.11-14.05Q23.04-12.99 23.04-11.16L23.04-11.16L22.86-7.80L23.19-0.60L19.14 0.15L19.50-7.59" fill="#0b76b3" stroke="none" stroke-width="none" transform="translate(-83.66998291015625,8.403427080426894)" style="fill: rgb(0, 158, 247); animation-play-state: running; animation-delay: 0s;"></path></g><g class="path" style="opacity: 1; transform-origin: -51.6px -3.04157px; animation: 1.19048s linear -0.617347s infinite normal forwards running fade-f5abeaee-789f-4b2b-9e81-81d45638947c;"><path d="M34.41-2.94L34.41-2.94L34.41-2.94Q32.07 0 30.36 0L30.36 0L30.36 0Q28.23 0 26.86-1.74L26.86-1.74L26.86-1.74Q25.50-3.48 25.50-6.21L25.50-6.21L25.50-6.21Q25.50-9.96 27.59-12.54L27.59-12.54L27.59-12.54Q29.67-15.12 32.70-15.12L32.70-15.12L34.38-14.88L34.38-15.45L34.02-22.47L38.13-23.22L37.74-7.80L37.74-5.16L37.74-5.16Q37.74-3.36 38.64-1.02L38.64-1.02L35.40 0.33L35.40 0.33Q34.53-1.47 34.41-2.94zM28.86-7.77L28.86-7.77L28.86-7.77Q28.86-5.85 29.56-4.77L29.56-4.77L29.56-4.77Q30.27-3.69 31.61-3.69L31.61-3.69L31.61-3.69Q32.94-3.69 34.38-4.77L34.38-4.77L34.38-11.25L34.38-11.25Q32.58-11.61 31.71-11.61L31.71-11.61L31.71-11.61Q30.36-11.61 29.61-10.65L29.61-10.65L29.61-10.65Q28.86-9.69 28.86-7.77" fill="#0b76b3" stroke="none" stroke-width="none" transform="translate(-83.66998291015625,8.403427080426894)" style="fill: rgb(0, 158, 247); animation-play-state: running; animation-delay: 0s;"></path></g><g class="path" style="opacity: 1; transform-origin: -40.125px 0.768427px; animation: 1.19048s linear -0.561224s infinite normal forwards running fade-f5abeaee-789f-4b2b-9e81-81d45638947c;"><path d="M41.55-14.52L45.57-15.27L45.21-7.80L45.54-0.75L41.52 0L41.88-7.29L41.55-14.52" fill="#0b76b3" stroke="none" stroke-width="none" transform="translate(-83.66998291015625,8.403427080426894)" style="fill: rgb(7, 112, 171); animation-play-state: running; animation-delay: 0s;"></path></g><g class="path" style="opacity: 1; transform-origin: -39.99px -11.3966px; animation: 1.19048s linear -0.505102s infinite normal forwards running fade-f5abeaee-789f-4b2b-9e81-81d45638947c;"><path d="M41.34-19.66L41.34-19.66L41.34-19.66Q41.34-20.67 42.12-21.46L42.12-21.46L42.12-21.46Q42.90-22.26 43.92-22.26L43.92-22.26L43.92-22.26Q44.94-22.26 45.48-21.70L45.48-21.70L45.48-21.70Q46.02-21.15 46.02-20.04L46.02-20.04L46.02-20.04Q46.02-18.93 45.26-18.13L45.26-18.13L45.26-18.13Q44.49-17.34 43.48-17.34L43.48-17.34L43.48-17.34Q42.48-17.34 41.91-18L41.91-18L41.91-18Q41.34-18.66 41.34-19.66" fill="#0b76b3" stroke="none" stroke-width="none" transform="translate(-83.66998291015625,8.403427080426894)" style="fill: rgb(0, 158, 247); animation-play-state: running; animation-delay: 0s;"></path></g><g class="path" style="opacity: 1; transform-origin: -29.58px 0.723427px; animation: 1.19048s linear -0.44898s infinite normal forwards running fade-f5abeaee-789f-4b2b-9e81-81d45638947c;"><path d="M51.87 0L51.87 0Q50.10 0 48.98-1.13L48.98-1.13L48.98-1.13Q47.85-2.25 47.85-4.16L47.85-4.16L47.85-4.16Q47.85-6.06 49.59-7.46L49.59-7.46L49.59-7.46Q51.33-8.85 53.82-8.85L53.82-8.85L55.86-8.85L55.86-9.36L55.86-9.36Q55.86-10.83 55.26-11.37L55.26-11.37L55.26-11.37Q54.66-11.91 53.01-11.91L53.01-11.91L53.01-11.91Q52.32-11.91 51.38-11.63L51.38-11.63L51.38-11.63Q50.43-11.34 49.26-10.74L49.26-10.74L48.39-13.11L48.39-13.11Q49.68-14.01 51.53-14.73L51.53-14.73L51.53-14.73Q53.37-15.45 54.57-15.45L54.57-15.45L54.57-15.45Q59.28-15.45 59.28-10.89L59.28-10.89L59.28-5.01L59.28-5.01Q59.28-3.33 60.33-1.26L60.33-1.26L57.15 0.09L57.15 0.09Q56.40-1.35 56.04-2.49L56.04-2.49L56.04-2.49Q54.39 0 51.87 0L51.87 0zM53.13-3.06L53.13-3.06L53.13-3.06Q54.33-3.06 55.86-4.29L55.86-4.29L55.86-6.30L55.86-6.30Q54.27-6.66 53.28-6.66L53.28-6.66L53.28-6.66Q51.39-6.66 51.39-4.98L51.39-4.98L51.39-4.98Q51.39-4.11 51.87-3.58L51.87-3.58L51.87-3.58Q52.35-3.06 53.13-3.06" fill="#0b76b3" stroke="none" stroke-width="none" transform="translate(-83.66998291015625,8.403427080426894)" style="fill: rgb(0, 158, 247); animation-play-state: running; animation-delay: 0s;"></path></g><g class="path" style="opacity: 1; transform-origin: -14.7px 0.843427px; animation: 1.19048s linear -0.392857s infinite normal forwards running fade-f5abeaee-789f-4b2b-9e81-81d45638947c;"><path d="M71.64-7.59L71.64-7.59Q71.64-9.66 71.28-10.35L71.28-10.35L71.28-10.35Q70.92-11.04 69.60-11.04L69.60-11.04L69.60-11.04Q68.28-11.04 66.60-9.99L66.60-9.99L66.60-7.80L66.93-0.75L62.91 0L63.27-7.29L63.27-7.29Q63.15-11.31 62.61-14.49L62.61-14.49L66.24-15.27L66.24-15.27Q66.45-13.53 66.54-11.88L66.54-11.88L66.54-11.88Q66.99-12.48 67.56-13.06L67.56-13.06L67.56-13.06Q68.13-13.65 69.36-14.38L69.36-14.38L69.36-14.38Q70.59-15.12 71.95-15.12L71.95-15.12L71.95-15.12Q73.32-15.12 74.25-14.05L74.25-14.05L74.25-14.05Q75.18-12.99 75.18-11.16L75.18-11.16L75-7.80L75.33-0.60L71.28 0.15L71.64-7.59" fill="#0b76b3" stroke="none" stroke-width="none" transform="translate(-83.66998291015625,8.403427080426894)" style="fill: rgb(10, 120, 181); animation-play-state: running; animation-delay: 0s;"></path></g><g class="path" style="opacity: 1; transform-origin: 2.50502px -1.78157px; animation: 1.19048s linear -0.336735s infinite normal forwards running fade-f5abeaee-789f-4b2b-9e81-81d45638947c;"><path d="M79.29-20.70L85.80-20.70L85.80-20.70Q88.68-20.70 90.36-19.39L90.36-19.39L90.36-19.39Q92.04-18.09 92.04-15.90L92.04-15.90L92.04-15.90Q92.04-12.39 89.16-11.01L89.16-11.01L89.16-11.01Q93.06-9.66 93.06-6.03L93.06-6.03L93.06-6.03Q93.06-3.30 90.72-1.48L90.72-1.48L90.72-1.48Q88.38 0.33 84.84 0.33L84.84 0.33L84.84 0.33Q82.98 0.33 79.29 0L79.29 0L79.65-7.29L79.29-20.70zM85.41-8.91L85.41-8.91L82.98-8.91L82.95-7.80L83.16-2.91L83.16-2.91Q84.90-2.76 85.83-2.76L85.83-2.76L85.83-2.76Q87.42-2.76 88.31-3.55L88.31-3.55L88.31-3.55Q89.19-4.35 89.19-5.88L89.19-5.88L89.19-5.88Q89.19-7.41 88.29-8.16L88.29-8.16L88.29-8.16Q87.39-8.91 85.41-8.91zM84.72-17.67L84.72-17.67L83.25-17.67L83.07-11.82L85.02-11.82L85.02-11.82Q86.55-11.82 87.36-12.64L87.36-12.64L87.36-12.64Q88.17-13.47 88.17-15L88.17-15L88.17-15Q88.17-17.67 84.72-17.67" fill="#0b76b3" stroke="none" stroke-width="none" transform="translate(-83.66998291015625,8.403427080426894)" style="fill: rgb(0, 158, 247); animation-play-state: running; animation-delay: 0s;"></path></g><g class="path" style="opacity: 1; transform-origin: 16.59px 0.768427px; animation: 1.19048s linear -0.280612s infinite normal forwards running fade-f5abeaee-789f-4b2b-9e81-81d45638947c;"><path d="M95.70-14.49L95.70-14.49L99.33-15.27L99.33-15.27Q99.60-12.96 99.69-10.89L99.69-10.89L99.69-10.89Q102.42-15.12 104.82-15.12L104.82-15.12L104.49-10.44L104.49-10.44Q102.75-10.44 101.74-10.13L101.74-10.13L101.74-10.13Q100.74-9.81 99.69-8.88L99.69-8.88L99.69-7.80L100.02-0.75L96.00 0L96.36-7.29L96.36-7.29Q96.24-11.31 95.70-14.49" fill="#0b76b3" stroke="none" stroke-width="none" transform="translate(-83.66998291015625,8.403427080426894)" style="fill: rgb(7, 129, 198); animation-play-state: running; animation-delay: 0s;"></path></g><g class="path" style="opacity: 1; transform-origin: 28.53px 0.843427px; animation: 1.19048s linear -0.22449s infinite normal forwards running fade-f5abeaee-789f-4b2b-9e81-81d45638947c;"><path d="M105.81-6.27L105.81-6.27Q105.81-10.11 107.88-12.78L107.88-12.78L107.88-12.78Q109.95-15.45 112.72-15.45L112.72-15.45L112.72-15.45Q115.50-15.45 117.05-13.65L117.05-13.65L117.05-13.65Q118.59-11.85 118.59-8.88L118.59-8.88L118.59-8.88Q118.59-4.92 116.59-2.29L116.59-2.29L116.59-2.29Q114.60 0.33 111.57 0.33L111.57 0.33L111.57 0.33Q109.08 0.33 107.44-1.54L107.44-1.54L107.44-1.54Q105.81-3.42 105.81-6.27L105.81-6.27zM115.23-7.32L115.23-7.32L115.23-7.32Q115.23-11.67 112.26-11.67L112.26-11.67L112.26-11.67Q109.17-11.67 109.17-7.59L109.17-7.59L109.17-7.59Q109.17-5.46 110.04-4.26L110.04-4.26L110.04-4.26Q110.91-3.06 112.33-3.06L112.33-3.06L112.33-3.06Q113.76-3.06 114.50-4.16L114.50-4.16L114.50-4.16Q115.23-5.25 115.23-7.32" fill="#0b76b3" stroke="none" stroke-width="none" transform="translate(-83.66998291015625,8.403427080426894)" style="fill: rgb(0, 158, 247); animation-play-state: running; animation-delay: 0s;"></path></g><g class="path" style="opacity: 1; transform-origin: 41.28px -0.881573px; animation: 1.19048s linear -0.168367s infinite normal forwards running fade-f5abeaee-789f-4b2b-9e81-81d45638947c;"><path d="M120.60-14.52L122.34-14.52L122.34-17.79L126.39-18.57L126.00-14.52L129.63-14.52L129.30-12.06L125.88-12.06L125.73-5.79L125.73-5.79Q125.73-4.38 126.00-3.92L126.00-3.92L126.00-3.92Q126.27-3.45 126.99-3.45L126.99-3.45L126.99-3.45Q127.71-3.45 128.91-3.78L128.91-3.78L129.09-1.65L129.09-1.65Q127.11 0 125.61 0L125.61 0L125.61 0Q124.11 0 123.15-1.09L123.15-1.09L123.15-1.09Q122.19-2.19 122.19-3.96L122.19-3.96L122.37-7.32L122.34-12.06L120.27-12.06L120.60-14.52" fill="#0b76b3" stroke="none" stroke-width="none" transform="translate(-83.66998291015625,8.403427080426894)" style="fill: rgb(0, 158, 247); animation-play-state: running; animation-delay: 0s;"></path></g><g class="path" style="opacity: 1; transform-origin: 54.375px -3.13157px; animation: 1.19048s linear -0.112245s infinite normal forwards running fade-f5abeaee-789f-4b2b-9e81-81d45638947c;"><path d="M140.58-7.59L140.58-7.59Q140.58-9.66 140.22-10.35L140.22-10.35L140.22-10.35Q139.86-11.04 138.54-11.04L138.54-11.04L138.54-11.04Q137.22-11.04 135.54-9.99L135.54-9.99L135.54-7.80L135.87-0.75L131.82 0L132.18-7.29L131.82-22.47L135.93-23.22L135.54-15.45L135.54-11.94L135.54-11.94Q135.99-12.54 136.56-13.11L136.56-13.11L136.56-13.11Q137.13-13.68 138.33-14.40L138.33-14.40L138.33-14.40Q139.53-15.12 140.89-15.12L140.89-15.12L140.89-15.12Q142.26-15.12 143.19-14.05L143.19-14.05L143.19-14.05Q144.12-12.99 144.12-11.16L144.12-11.16L143.94-7.80L144.27-0.60L140.22 0.15L140.58-7.59" fill="#0b76b3" stroke="none" stroke-width="none" transform="translate(-83.66998291015625,8.403427080426894)" style="fill: rgb(14, 165, 252); animation-play-state: running; animation-delay: 0s;"></path></g><g class="path" style="opacity: 1; transform-origin: 68.805px 0.843427px; animation: 1.19048s linear -0.0561224s infinite normal forwards running fade-f5abeaee-789f-4b2b-9e81-81d45638947c;"><path d="M152.97-3.06L152.97-3.06L152.97-3.06Q153.84-3.06 154.80-3.51L154.80-3.51L154.80-3.51Q155.76-3.96 156.30-4.41L156.30-4.41L156.84-4.86L158.22-3.18L158.22-3.18Q157.92-2.67 157.29-2.01L157.29-2.01L157.29-2.01Q156.66-1.35 156.01-0.89L156.01-0.89L156.01-0.89Q155.37-0.42 154.30-0.04L154.30-0.04L154.30-0.04Q153.24 0.33 152.10 0.33L152.10 0.33L152.10 0.33Q149.67 0.33 148.14-1.51L148.14-1.51L148.14-1.51Q146.61-3.36 146.61-6.27L146.61-6.27L146.61-6.27Q146.61-9.93 148.74-12.69L148.74-12.69L148.74-12.69Q150.87-15.45 153.72-15.45L153.72-15.45L153.72-15.45Q155.91-15.45 157.12-14.22L157.12-14.22L157.12-14.22Q158.34-12.99 158.34-10.77L158.34-10.77L158.34-10.77Q158.34-9.45 157.89-7.77L157.89-7.77L157.29-7.14L149.79-6.45L149.79-6.45Q150.30-3.06 152.97-3.06zM152.97-12.36L152.97-12.36L152.97-12.36Q151.65-12.36 150.75-11.29L150.75-11.29L150.75-11.29Q149.85-10.23 149.70-8.58L149.70-8.58L154.80-9.21L154.80-9.21Q154.89-9.90 154.89-10.35L154.89-10.35L154.89-10.35Q154.89-12.36 152.97-12.36" fill="#0b76b3" stroke="none" stroke-width="none" transform="translate(-83.66998291015625,8.403427080426894)" style="fill: rgb(13, 126, 240); animation-play-state: running; animation-delay: 0s;"></path></g><g class="path" style="opacity: 1; transform-origin: 81.51px 0.768427px; animation: 1.19048s linear 0s infinite normal forwards running fade-f5abeaee-789f-4b2b-9e81-81d45638947c;"><path d="M160.62-14.49L160.62-14.49L164.25-15.27L164.25-15.27Q164.52-12.96 164.61-10.89L164.61-10.89L164.61-10.89Q167.34-15.12 169.74-15.12L169.74-15.12L169.41-10.44L169.41-10.44Q167.67-10.44 166.66-10.13L166.66-10.13L166.66-10.13Q165.66-9.81 164.61-8.88L164.61-8.88L164.61-7.80L164.94-0.75L160.92 0L161.28-7.29L161.28-7.29Q161.16-11.31 160.62-14.49" fill="#0b76b3" stroke="none" stroke-width="none" transform="translate(-83.66998291015625,8.403427080426894)" style="fill: rgb(11, 118, 179); animation-play-state: running; animation-delay: 0s;"></path></g></g>
</g>
</g>
<style id="fade-f5abeaee-789f-4b2b-9e81-81d45638947c" data-anikit="">@keyframes fade-f5abeaee-789f-4b2b-9e81-81d45638947c
{
  0% {
    animation-timing-function: cubic-bezier(0.2057,0.573,0.3723,0.9184);
    opacity: 1;
  }
  100% {
    opacity: 0;
  }
}</style></svg>